<?xml version="1.0" encoding="UTF-8"?>
<svg width="58px" height="56px" viewBox="0 0 58 56" version="1.1" xmlns="http://www.w3.org/2000/svg" xmlns:xlink="http://www.w3.org/1999/xlink">
    <!-- Generator: Sketch 51.3 (57544) - http://www.bohemiancoding.com/sketch -->
    <title>chef</title>
    <desc>Created with Sketch.</desc>
    <defs></defs>
    <g id="Page-1" stroke="none" stroke-width="1" fill="none" fill-rule="evenodd">
        <g id="chef" fill="#FFFFFF" fill-rule="nonzero">
            <path d="M45.768,5.161 C43.884,4.917 42.002,5.062 40.16,5.593 C37.517,2.106 33.399,0.047 29,0.047 C24.601,0.047 20.483,2.107 17.84,5.593 C15.998,5.064 14.116,4.918 12.232,5.161 C5.318,6.057 0.06,11.974 0.001,18.925 C-0.054,25.428 4.308,31.066 10.609,32.634 C12.105,33.006 13.209,34.287 13.355,35.822 L14.193,44.625 L14.192,44.625 L14.671,49.654 C14.875,51.8 17.591,53.273 18.733,53.801 C18.896,53.876 19.027,53.932 19.114,53.968 C22.256,55.291 25.628,55.952 29,55.952 C32.371,55.952 35.74,55.291 38.877,53.97 C39.579,53.68 43.092,52.106 43.326,49.654 L43.805,44.625 L43.804,44.625 L44.642,35.822 C44.788,34.287 45.892,33.006 47.388,32.634 C53.692,31.065 58.055,25.428 58,18.925 C57.94,11.974 52.682,6.057 45.768,5.161 Z M38.108,52.125 C32.319,54.563 25.679,54.564 19.886,52.123 C18.639,51.603 16.752,50.399 16.663,49.465 L16.539,48.167 C20.494,50.079 24.676,51.047 28.999,51.047 C33.322,51.047 37.504,50.079 41.459,48.167 L41.335,49.465 C41.248,50.399 39.36,51.604 38.108,52.125 Z M46.908,30.692 C44.591,31.269 42.881,33.255 42.654,35.632 L41.686,45.794 C37.682,47.945 33.418,49.046 29,49.046 C24.582,49.046 20.318,47.945 16.314,45.794 L15.346,35.632 C15.119,33.254 13.409,31.269 11.092,30.692 C5.692,29.348 1.953,24.516 2,18.942 C2.051,12.984 6.56,7.913 12.489,7.145 C12.993,7.08 13.498,7.046 14.002,7.046 C15.315,7.046 16.623,7.268 17.905,7.709 L18.629,7.958 L19.059,7.324 C21.298,4.021 25.014,2.047 29,2.047 C32.986,2.047 36.702,4.021 38.941,7.325 L39.371,7.959 L40.095,7.71 C41.869,7.1 43.691,6.91 45.511,7.146 C51.439,7.913 55.949,12.984 56,18.942 C56.047,24.517 52.308,29.349 46.908,30.692 Z" id="Shape"></path>
            <path d="M18.876,34.055 C18.328,34.123 17.939,34.623 18.008,35.171 L19.008,43.171 C19.071,43.677 19.502,44.047 19.999,44.047 C20.041,44.047 20.082,44.044 20.124,44.039 C20.672,43.971 21.061,43.471 20.992,42.923 L19.992,34.923 C19.923,34.374 19.418,33.992 18.876,34.055 Z" id="Shape"></path>
            <path d="M26,36.047 C25.448,36.047 25,36.494 25,37.047 L25,45.047 C25,45.6 25.448,46.047 26,46.047 C26.552,46.047 27,45.6 27,45.047 L27,37.047 C27,36.494 26.552,36.047 26,36.047 Z" id="Shape"></path>
            <path d="M39.124,34.055 C38.581,33.992 38.076,34.374 38.008,34.923 L37.008,42.923 C36.94,43.471 37.328,43.971 37.876,44.039 C37.918,44.044 37.96,44.047 38.001,44.047 C38.498,44.047 38.929,43.677 38.992,43.171 L39.992,35.171 C40.061,34.623 39.672,34.123 39.124,34.055 Z" id="Shape"></path>
            <path d="M32,36.047 C31.448,36.047 31,36.494 31,37.047 L31,45.047 C31,45.6 31.448,46.047 32,46.047 C32.552,46.047 33,45.6 33,45.047 L33,37.047 C33,36.494 32.552,36.047 32,36.047 Z" id="Shape"></path>
            <path d="M16.011,10.047 C7.663,9.976 6.038,16.764 6.024,16.833 C5.905,17.372 6.247,17.905 6.786,18.023 C6.858,18.039 6.931,18.046 7.001,18.046 C7.46,18.046 7.875,17.728 7.977,17.26 C7.989,17.207 9.188,11.931 15.99,12.046 C16.525,12.009 16.995,11.608 17.001,11.057 C17.007,10.506 16.563,10.053 16.011,10.047 Z" id="Shape"></path>
            <path d="M23.389,6.255 C22.952,6.593 22.871,7.221 23.209,7.658 C23.546,8.095 24.175,8.174 24.612,7.839 C24.653,7.806 28.834,4.657 33.428,7.866 C33.602,7.988 33.802,8.047 34,8.047 C34.316,8.047 34.626,7.898 34.821,7.619 C35.137,7.167 35.027,6.543 34.574,6.227 C29.943,2.994 25.233,4.833 23.389,6.255 Z" id="Shape"></path>
        </g>
    </g>
</svg>