<?xml version="1.0" encoding="UTF-8"?>
<svg width="24px" height="8px" viewBox="0 0 24 8" version="1.1" xmlns="http://www.w3.org/2000/svg" xmlns:xlink="http://www.w3.org/1999/xlink">
    <!-- Generator: Sketch 52.6 (67491) - http://www.bohemiancoding.com/sketch -->
    <title>Container Arrpws</title>
    <desc>Created with Sketch.</desc>
    <g id="Page-1" stroke="none" stroke-width="1" fill="none" fill-rule="evenodd">
        <g id="Responsive-Development" transform="translate(-708.000000, -1069.000000)" fill="#FAF7F5">
            <g id="Container-Class-Section" transform="translate(106.000000, 1050.000000)">
                <g id="Group-8" transform="translate(591.000000, 0.000000)">
                    <path d="M14.2927865,26.7068157 C14.5787807,26.9927236 15.0088231,27.0782376 15.382441,26.9234937 C15.756059,26.7687497 15.9997001,26.4042116 15.9997865,25.9998157 L15.9997865,24.4998157 C15.9997865,24.3617445 16.1117153,24.2498157 16.2497865,24.2498157 L29.7497865,24.2498157 C29.8878576,24.2498157 29.9997865,24.3617445 29.9997865,24.4998157 L29.9997865,25.9998157 C29.9998728,26.4042116 30.243514,26.7687497 30.6171319,26.9234937 C30.9907498,27.0782376 31.4207922,26.9927236 31.7067865,26.7068157 L34.7067865,23.7068157 C35.0971684,23.3163158 35.0971684,22.6833155 34.7067865,22.2928157 L31.7067865,19.2928157 C31.4207922,19.0069078 30.9907498,18.9213938 30.6171319,19.0761377 C30.243514,19.2308816 29.9998728,19.5954198 29.9997865,19.9998157 L29.9997865,21.4998157 C29.9997865,21.6378869 29.8878576,21.7498157 29.7497865,21.7498157 L15.9997865,21.7498157 L15.9997865,19.9998157 C15.9997001,19.5954198 15.756059,19.2308816 15.382441,19.0761377 C15.0088231,18.9213938 14.5787807,19.0069078 14.2927865,19.2928157 L11.2927865,22.2928157 C10.9024045,22.6833155 10.9024045,23.3163158 11.2927865,23.7068157 L14.2927865,26.7068157 Z" id="Container-Arrpws"></path>
                </g>
            </g>
        </g>
    </g>
</svg>